<svg width="20" height="23" viewBox="0 0 20 23" fill="none" xmlns="http://www.w3.org/2000/svg">
<path fill-rule="evenodd" clip-rule="evenodd" d="M12.205 20.6614L9.52905 16.8384C9.29105 16.4994 9.37405 16.0314 9.71305 15.7944C9.93605 15.6374 10.215 15.6204 10.448 15.7234C11.73 14.2344 13.292 13.1444 15.129 12.4474C15.111 12.1934 15.223 11.9354 15.447 11.7794C15.786 11.5414 16.254 11.6244 16.491 11.9634L19.168 15.7864C19.405 16.1254 19.323 16.5934 18.984 16.8304C18.751 16.9934 18.458 17.0054 18.22 16.8884C17.738 17.4144 17.223 17.8944 16.675 18.3284L18.595 21.0704C18.833 21.4094 18.75 21.8774 18.411 22.1144C18.072 22.3524 17.604 22.2694 17.367 21.9304L15.447 19.1894C14.853 19.5564 14.225 19.8754 13.565 20.1484C13.594 20.4124 13.482 20.6834 13.25 20.8454C12.911 21.0834 12.443 21.0004 12.205 20.6614Z" fill="#CBAD7E"/>
<path fill-rule="evenodd" clip-rule="evenodd" d="M12 21.777V22.25H3.44604C2.71704 22.25 2.01804 21.96 1.50204 21.445C0.986045 20.929 0.696045 20.229 0.696045 19.5V3.5C0.696045 2.771 0.986045 2.071 1.50204 1.555C2.01804 1.04 2.71704 0.75 3.44604 0.75H11.833C12.562 0.75 13.261 1.04 13.777 1.555L17.606 5.384C18.121 5.9 18.411 6.599 18.411 7.328V12.961L17.31 11.389C16.757 10.598 15.664 10.406 14.873 10.96C14.591 11.157 14.385 11.423 14.262 11.719C12.656 12.406 11.253 13.385 10.058 14.661C9.74004 14.675 9.42004 14.778 9.13904 14.975C8.34804 15.529 8.15504 16.621 8.70904 17.412L11.386 21.235C11.551 21.47 11.763 21.652 12 21.777ZM4.94604 10.25H10.946C11.36 10.25 11.696 9.914 11.696 9.5C11.696 9.086 11.36 8.75 10.946 8.75H4.94604C4.53204 8.75 4.19604 9.086 4.19604 9.5C4.19604 9.914 4.53204 10.25 4.94604 10.25ZM4.94604 7.25H7.94604C8.36004 7.25 8.69604 6.914 8.69604 6.5C8.69604 6.086 8.36004 5.75 7.94604 5.75H4.94604C4.53204 5.75 4.19604 6.086 4.19604 6.5C4.19604 6.914 4.53204 7.25 4.94604 7.25ZM4.94604 13.25H7.94604C8.36004 13.25 8.69604 12.914 8.69604 12.5C8.69604 12.086 8.36004 11.75 7.94604 11.75H4.94604C4.53204 11.75 4.19604 12.086 4.19604 12.5C4.19604 12.914 4.53204 13.25 4.94604 13.25ZM12.161 2.18V6C12.161 6.552 12.609 7 13.161 7H16.981C16.883 6.784 16.746 6.585 16.575 6.414L12.747 2.586C12.576 2.415 12.377 2.278 12.161 2.18Z" fill="#CBAD7E"/>
</svg>
