<svg width="24" height="25" viewBox="0 0 24 25" fill="none" xmlns="http://www.w3.org/2000/svg">
<path fill-rule="evenodd" clip-rule="evenodd" d="M14.2049 21.6614L11.5289 17.8384C11.2909 17.4994 11.3739 17.0314 11.7129 16.7944C11.9359 16.6374 12.2149 16.6204 12.4479 16.7234C13.7299 15.2344 15.2919 14.1444 17.1289 13.4474C17.1109 13.1934 17.2229 12.9354 17.4469 12.7794C17.7859 12.5414 18.2539 12.6244 18.4909 12.9634L21.1679 16.7864C21.4049 17.1254 21.3229 17.5934 20.9839 17.8304C20.7509 17.9934 20.4579 18.0054 20.2199 17.8884C19.7379 18.4144 19.2229 18.8944 18.6749 19.3284L20.5949 22.0704C20.8329 22.4094 20.7499 22.8774 20.4109 23.1144C20.0719 23.3524 19.6039 23.2694 19.3669 22.9304L17.4469 20.1894C16.8529 20.5564 16.2249 20.8754 15.5649 21.1484C15.5939 21.4124 15.4819 21.6834 15.2499 21.8454C14.9109 22.0834 14.4429 22.0004 14.2049 21.6614Z" fill="white" fill-opacity="0.7"/>
<path fill-rule="evenodd" clip-rule="evenodd" d="M14 22.777V23.25H5.44604C4.71704 23.25 4.01804 22.96 3.50204 22.445C2.98604 21.929 2.69604 21.229 2.69604 20.5V4.5C2.69604 3.771 2.98604 3.071 3.50204 2.555C4.01804 2.04 4.71704 1.75 5.44604 1.75H13.833C14.562 1.75 15.261 2.04 15.777 2.555L19.606 6.384C20.121 6.9 20.411 7.599 20.411 8.328V13.961L19.31 12.389C18.757 11.598 17.664 11.406 16.873 11.96C16.591 12.157 16.385 12.423 16.262 12.719C14.656 13.406 13.253 14.385 12.058 15.661C11.74 15.675 11.42 15.778 11.139 15.975C10.348 16.529 10.155 17.621 10.709 18.412L13.386 22.235C13.551 22.47 13.763 22.652 14 22.777ZM6.94604 11.25H12.946C13.36 11.25 13.696 10.914 13.696 10.5C13.696 10.086 13.36 9.75 12.946 9.75H6.94604C6.53204 9.75 6.19604 10.086 6.19604 10.5C6.19604 10.914 6.53204 11.25 6.94604 11.25ZM6.94604 8.25H9.94604C10.36 8.25 10.696 7.914 10.696 7.5C10.696 7.086 10.36 6.75 9.94604 6.75H6.94604C6.53204 6.75 6.19604 7.086 6.19604 7.5C6.19604 7.914 6.53204 8.25 6.94604 8.25ZM6.94604 14.25H9.94604C10.36 14.25 10.696 13.914 10.696 13.5C10.696 13.086 10.36 12.75 9.94604 12.75H6.94604C6.53204 12.75 6.19604 13.086 6.19604 13.5C6.19604 13.914 6.53204 14.25 6.94604 14.25ZM14.161 3.18V7C14.161 7.552 14.609 8 15.161 8H18.981C18.883 7.784 18.746 7.585 18.575 7.414L14.747 3.586C14.576 3.415 14.377 3.278 14.161 3.18Z" fill="white" fill-opacity="0.7"/>
</svg>
