<svg width="20" height="24" viewBox="0 0 20 24" fill="none" xmlns="http://www.w3.org/2000/svg">
<path d="M12 1.29648V5.84008C12 6.45614 12 6.76417 12.1199 6.99947C12.2254 7.20645 12.3936 7.37472 12.6006 7.48019C12.8359 7.60008 13.1439 7.60008 13.76 7.60008H18.3036M14.2 13.1H5.4M14.2 17.5H5.4M7.6 8.7H5.4M12 1H6.28C4.43183 1 3.50774 1 2.80183 1.35968C2.1809 1.67606 1.67606 2.1809 1.35968 2.80183C1 3.50774 1 4.43183 1 6.28V17.72C1 19.5682 1 20.4923 1.35968 21.1982C1.67606 21.8191 2.1809 22.3239 2.80183 22.6403C3.50774 23 4.43183 23 6.28 23H13.32C15.1682 23 16.0923 23 16.7982 22.6403C17.4191 22.3239 17.9239 21.8191 18.2403 21.1982C18.6 20.4923 18.6 19.5682 18.6 17.72V7.6L12 1Z" stroke="white" stroke-width="2" stroke-linecap="round" stroke-linejoin="round"/>
</svg>
