<svg width="34" height="35" viewBox="0 0 34 35" fill="none" xmlns="http://www.w3.org/2000/svg">
<path d="M28.8508 14.907H27.9094V14.8585H17.3906V19.5335H23.9958C23.0322 22.2549 20.4428 24.2085 17.3906 24.2085C13.518 24.2085 10.3781 21.0686 10.3781 17.196C10.3781 13.3233 13.518 10.1835 17.3906 10.1835C19.1782 10.1835 20.8045 10.8579 22.0428 11.9594L25.3486 8.65359C23.2613 6.70821 20.4691 5.50848 17.3906 5.50848C10.9362 5.50848 5.70312 10.7416 5.70312 17.196C5.70312 23.6504 10.9362 28.8835 17.3906 28.8835C23.845 28.8835 29.0781 23.6504 29.0781 17.196C29.0781 16.4123 28.9975 15.6474 28.8508 14.907Z" fill="#FFCC00"/>
<path d="M7.05078 11.756L10.8907 14.5721C11.9297 11.9997 14.446 10.1835 17.3907 10.1835C19.1783 10.1835 20.8046 10.8579 22.0429 11.9594L25.3487 8.65359C23.2613 6.70821 20.4692 5.50848 17.3907 5.50848C12.9015 5.50848 9.00844 8.04292 7.05078 11.756Z" fill="#FF5943"/>
<path d="M17.3911 28.8833C20.41 28.8833 23.1531 27.728 25.227 25.8492L21.6097 22.7882C20.4363 23.6771 18.9777 24.2083 17.3911 24.2083C14.3512 24.2083 11.77 22.2699 10.7976 19.5648L6.98633 22.5013C8.92061 26.2863 12.8488 28.8833 17.3911 28.8833Z" fill="#2AA44B"/>
<path d="M28.8508 14.9069H27.9094V14.8584H17.3906V19.5334H23.9958C23.533 20.8406 22.6921 21.9679 21.6075 22.7889L21.6092 22.7878L25.2265 25.8487C24.9706 26.0813 29.0781 23.0396 29.0781 17.1959C29.0781 16.4122 28.9975 15.6473 28.8508 14.9069Z" fill="#007AFF"/>
</svg>
