<svg width="20" height="21" viewBox="0 0 20 21" fill="none" xmlns="http://www.w3.org/2000/svg">
<path d="M1 9.56507C1 8.99071 1 8.70354 1.07403 8.43907C1.1396 8.2048 1.24737 7.98446 1.39203 7.78887C1.55534 7.56807 1.78202 7.39176 2.23539 7.03914L9.0177 1.76401C9.36902 1.49076 9.54468 1.35414 9.73865 1.30162C9.9098 1.25528 10.0902 1.25528 10.2613 1.30162C10.4553 1.35414 10.631 1.49076 10.9823 1.76402L17.7646 7.03914C18.218 7.39176 18.4447 7.56807 18.608 7.78887C18.7526 7.98446 18.8604 8.2048 18.926 8.43907C19 8.70354 19 8.99071 19 9.56507V16.8C19 17.9201 19 18.4802 18.782 18.908C18.5903 19.2843 18.2843 19.5903 17.908 19.782C17.4802 20 16.9201 20 15.8 20H4.2C3.07989 20 2.51984 20 2.09202 19.782C1.71569 19.5903 1.40973 19.2843 1.21799 18.908C1 18.4802 1 17.9201 1 16.8V9.56507Z" stroke="white" stroke-width="2" stroke-linecap="round" stroke-linejoin="round"/>
</svg>
