<svg width="32" height="21" viewBox="0 0 32 21" fill="none" xmlns="http://www.w3.org/2000/svg">
<g clip-path="url(#clip0_1883_3965)">
<path d="M32 -0.166687H0V21.1669H32V-0.166687Z" fill="#F0F0F0"/>
<path d="M18 -0.16687H14V8.49975H0V12.4998H14V21.1664H18V12.4998H32V8.49975H18V-0.16687Z" fill="#D80027"/>
<path d="M24.6113 14.2099L31.9998 18.3146V14.2099H24.6113Z" fill="#0052B4"/>
<path d="M19.4785 14.2099L32.0003 21.1664V19.1992L23.0195 14.2099H19.4785Z" fill="#0052B4"/>
<path d="M28.6649 21.1664L19.4785 16.0624V21.1664H28.6649Z" fill="#0052B4"/>
<path d="M19.4785 14.2099L32.0003 21.1664V19.1992L23.0195 14.2099H19.4785Z" fill="#F0F0F0"/>
<path d="M19.4785 14.2099L32.0003 21.1664V19.1992L23.0195 14.2099H19.4785Z" fill="#D80027"/>
<path d="M5.64631 14.2097L0 17.3466V14.2097H5.64631Z" fill="#0052B4"/>
<path d="M12.5223 15.0944V21.1663H1.59375L12.5223 15.0944Z" fill="#0052B4"/>
<path d="M8.98081 14.2099L0 19.1992V21.1664L12.5218 14.2099H8.98081Z" fill="#D80027"/>
<path d="M7.38844 6.78963L0 2.68488V6.78963H7.38844Z" fill="#0052B4"/>
<path d="M12.5218 6.78963L0 -0.16687V1.80025L8.98081 6.78963H12.5218Z" fill="#0052B4"/>
<path d="M3.33594 -0.16687L12.5223 4.93713V-0.16687H3.33594Z" fill="#0052B4"/>
<path d="M12.5218 6.78963L0 -0.16687V1.80025L8.98081 6.78963H12.5218Z" fill="#F0F0F0"/>
<path d="M12.5218 6.78963L0 -0.16687V1.80025L8.98081 6.78963H12.5218Z" fill="#D80027"/>
<path d="M26.3535 6.78975L31.9998 3.65288V6.78975H26.3535Z" fill="#0052B4"/>
<path d="M19.4785 5.90513V-0.166809H30.4071L19.4785 5.90513Z" fill="#0052B4"/>
<path d="M23.0195 6.78963L32.0003 1.80025V-0.16687L19.4785 6.78963H23.0195Z" fill="#D80027"/>
</g>
<defs>
<clipPath id="clip0_1883_3965">
<rect width="32" height="21" rx="10.5" fill="white"/>
</clipPath>
</defs>
</svg>
