<svg width="18" height="19" viewBox="0 0 18 19" fill="none" xmlns="http://www.w3.org/2000/svg">
<path d="M9.00009 12.5C5.83002 12.5 3.01089 14.0306 1.21609 16.406C0.829799 16.9172 0.636655 17.1728 0.642972 17.5183C0.647853 17.7852 0.815456 18.1219 1.02546 18.2867C1.29728 18.5 1.67396 18.5 2.42733 18.5H15.5729C16.3262 18.5 16.7029 18.5 16.9747 18.2867C17.1847 18.1219 17.3523 17.7852 17.3572 17.5183C17.3635 17.1728 17.1704 16.9172 16.7841 16.406C14.9893 14.0306 12.1702 12.5 9.00009 12.5Z" fill="white" fill-opacity="0.7"/>
<path d="M9.0001 9.5C11.4854 9.5 13.5001 7.48528 13.5001 5C13.5001 2.51472 11.4854 0.5 9.0001 0.5C6.51481 0.5 4.5001 2.51472 4.5001 5C4.5001 7.48528 6.51481 9.5 9.0001 9.5Z" fill="white" fill-opacity="0.7"/>
</svg>
