<svg width="19" height="19" viewBox="0 0 19 19" fill="none" xmlns="http://www.w3.org/2000/svg">
<path d="M9.49999 12.625C6.19782 12.625 3.26123 14.2194 1.39165 16.6937C0.989263 17.2263 0.78807 17.4925 0.794651 17.8524C0.799735 18.1304 0.974321 18.4811 1.19308 18.6528C1.47622 18.875 1.8686 18.875 2.65335 18.875H16.3466C17.1314 18.875 17.5238 18.875 17.8069 18.6528C18.0257 18.4811 18.2002 18.1304 18.2053 17.8524C18.2119 17.4925 18.0107 17.2263 17.6083 16.6937C15.7387 14.2194 12.8021 12.625 9.49999 12.625Z" fill="#CBAD7E"/>
<path d="M9.49999 9.5C12.0888 9.5 14.1875 7.40133 14.1875 4.8125C14.1875 2.22366 12.0888 0.125 9.49999 0.125C6.91115 0.125 4.81249 2.22366 4.81249 4.8125C4.81249 7.40133 6.91115 9.5 9.49999 9.5Z" fill="#CBAD7E"/>
</svg>
