<svg width="16" height="23" viewBox="0 0 16 23" fill="none" xmlns="http://www.w3.org/2000/svg">
<path d="M8 8.5V11.5L9.5 13" fill="white"/>
<path d="M8 18.5C11.866 18.5 15 15.366 15 11.5C15 7.63401 11.866 4.5 8 4.5C4.13401 4.5 1 7.63401 1 11.5C1 15.366 4.13401 18.5 8 18.5Z" fill="white"/>
<path d="M3 16.5L3.48551 18.9276C3.66878 19.8439 3.76041 20.3021 3.99964 20.6448C4.2106 20.947 4.50097 21.185 4.83869 21.3326C5.22166 21.5 5.6889 21.5 6.62337 21.5H9.37663C10.3111 21.5 10.7783 21.5 11.1613 21.3326C11.499 21.185 11.7894 20.947 12.0004 20.6448C12.2396 20.3021 12.3312 19.8439 12.5145 18.9276L13 16.5M3 6.5L3.48551 4.07243C3.66878 3.1561 3.76041 2.69793 3.99964 2.35522C4.2106 2.05301 4.50097 1.81497 4.83869 1.66737C5.22166 1.5 5.6889 1.5 6.62337 1.5H9.37663C10.3111 1.5 10.7783 1.5 11.1613 1.66737C11.499 1.81497 11.7894 2.05301 12.0004 2.35522C12.2396 2.69793 12.3312 3.1561 12.5145 4.07243L13 6.5M8 8.5V11.5L9.5 13M15 11.5C15 15.366 11.866 18.5 8 18.5C4.13401 18.5 1 15.366 1 11.5C1 7.63401 4.13401 4.5 8 4.5C11.866 4.5 15 7.63401 15 11.5Z" stroke="white" stroke-width="2" stroke-linecap="round" stroke-linejoin="round"/>
</svg>
