<svg width="24" height="25" viewBox="0 0 24 25" fill="none" xmlns="http://www.w3.org/2000/svg">
<path d="M12 9.5V12.5L13.5 14" fill="#CBAD7E"/>
<path d="M12 19.5C15.866 19.5 19 16.366 19 12.5C19 8.63401 15.866 5.5 12 5.5C8.13401 5.5 5 8.63401 5 12.5C5 16.366 8.13401 19.5 12 19.5Z" fill="#CBAD7E"/>
<path d="M7 17.5L7.48551 19.9276C7.66878 20.8439 7.76041 21.3021 7.99964 21.6448C8.2106 21.947 8.50097 22.185 8.83869 22.3326C9.22166 22.5 9.6889 22.5 10.6234 22.5H13.3766C14.3111 22.5 14.7783 22.5 15.1613 22.3326C15.499 22.185 15.7894 21.947 16.0004 21.6448C16.2396 21.3021 16.3312 20.8439 16.5145 19.9276L17 17.5M7 7.5L7.48551 5.07243C7.66878 4.1561 7.76041 3.69793 7.99964 3.35522C8.2106 3.05301 8.50097 2.81497 8.83869 2.66737C9.22166 2.5 9.6889 2.5 10.6234 2.5H13.3766C14.3111 2.5 14.7783 2.5 15.1613 2.66737C15.499 2.81497 15.7894 3.05301 16.0004 3.35522C16.2396 3.69793 16.3312 4.1561 16.5145 5.07243L17 7.5M12 9.5V12.5L13.5 14M19 12.5C19 16.366 15.866 19.5 12 19.5C8.13401 19.5 5 16.366 5 12.5C5 8.63401 8.13401 5.5 12 5.5C15.866 5.5 19 8.63401 19 12.5Z" stroke="#CBAD7E" stroke-width="2" stroke-linecap="round" stroke-linejoin="round"/>
<path d="M12 9.5V11.8373C12 12.0818 12 12.2041 12.0276 12.3192C12.0521 12.4213 12.0925 12.5188 12.1474 12.6083C12.2092 12.7092 12.2957 12.7957 12.4686 12.9686L14 14.5" stroke="white" stroke-width="2" stroke-linecap="round"/>
</svg>
