<svg width="24" height="25" viewBox="0 0 24 25" fill="none" xmlns="http://www.w3.org/2000/svg">
<path d="M3 21.5C2.45 21.5 1.97917 21.3042 1.5875 20.9125C1.19583 20.5208 1 20.05 1 19.5V7.5C1 6.95 1.19583 6.47917 1.5875 6.0875C1.97917 5.69583 2.45 5.5 3 5.5H6.15L8 3.5H14V5.5H8.875L7.05 7.5H3V19.5H19V10.5H21V19.5C21 20.05 20.8042 20.5208 20.4125 20.9125C20.0208 21.3042 19.55 21.5 19 21.5H3ZM19 7.5V5.5H17V3.5H19V1.5H21V3.5H23V5.5H21V7.5H19ZM11 18C12.25 18 13.3125 17.5625 14.1875 16.6875C15.0625 15.8125 15.5 14.75 15.5 13.5C15.5 12.25 15.0625 11.1875 14.1875 10.3125C13.3125 9.4375 12.25 9 11 9C9.75 9 8.6875 9.4375 7.8125 10.3125C6.9375 11.1875 6.5 12.25 6.5 13.5C6.5 14.75 6.9375 15.8125 7.8125 16.6875C8.6875 17.5625 9.75 18 11 18ZM11 16C10.3 16 9.70833 15.7583 9.225 15.275C8.74167 14.7917 8.5 14.2 8.5 13.5C8.5 12.8 8.74167 12.2083 9.225 11.725C9.70833 11.2417 10.3 11 11 11C11.7 11 12.2917 11.2417 12.775 11.725C13.2583 12.2083 13.5 12.8 13.5 13.5C13.5 14.2 13.2583 14.7917 12.775 15.275C12.2917 15.7583 11.7 16 11 16Z" fill="white"/>
</svg>
