<svg width="32" height="32" viewBox="0 0 32 32" fill="none" xmlns="http://www.w3.org/2000/svg">
<rect width="32" height="32" rx="16" fill="#145452"/>
<path d="M8.81509 16.5349C8.71295 16.3732 8.66188 16.2923 8.63329 16.1676C8.61182 16.0739 8.61182 15.9261 8.63329 15.8324C8.66188 15.7077 8.71295 15.6268 8.81509 15.4651C9.65915 14.1286 12.1715 10.75 16.0003 10.75C19.8291 10.75 22.3415 14.1286 23.1855 15.4651C23.2877 15.6268 23.3387 15.7077 23.3673 15.8324C23.3888 15.9261 23.3888 16.0739 23.3673 16.1676C23.3387 16.2923 23.2877 16.3732 23.1855 16.5349C22.3415 17.8714 19.8291 21.25 16.0003 21.25C12.1716 21.25 9.65915 17.8714 8.81509 16.5349Z" stroke="#FFE9C2" stroke-linecap="round" stroke-linejoin="round"/>
<path d="M16.0003 18.25C17.2429 18.25 18.2503 17.2426 18.2503 16C18.2503 14.7574 17.2429 13.75 16.0003 13.75C14.7577 13.75 13.7503 14.7574 13.7503 16C13.7503 17.2426 14.7577 18.25 16.0003 18.25Z" stroke="#FFE9C2" stroke-linecap="round" stroke-linejoin="round"/>
</svg>
