<svg width="50" height="50" viewBox="0 0 50 50" fill="none" xmlns="http://www.w3.org/2000/svg">
<rect width="50" height="50" rx="24" fill="#091618"/>
<path d="M29.739 22C29.739 20.4087 29.1069 18.8826 27.9817 17.7574C26.8565 16.6321 25.3303 16 23.739 16C22.1477 16 20.6216 16.6321 19.4964 17.7574C18.3712 18.8826 17.739 20.4087 17.739 22C17.739 25.0902 16.9595 27.206 16.0887 28.6054C15.3542 29.7859 14.9869 30.3761 15.0004 30.5408C15.0153 30.7231 15.0539 30.7926 15.2008 30.9016C15.3335 31 15.9316 31 17.1279 31H30.3502C31.5464 31 32.1446 31 32.2773 30.9016C32.4242 30.7926 32.4628 30.7231 32.4777 30.5408C32.4912 30.3761 32.1239 29.7859 31.3894 28.6054C30.5186 27.206 29.739 25.0902 29.739 22Z" fill="white"/>
<path d="M25.739 35H21.739M29.739 22C29.739 20.4087 29.1069 18.8826 27.9817 17.7574C26.8565 16.6321 25.3303 16 23.739 16C22.1477 16 20.6216 16.6321 19.4964 17.7574C18.3712 18.8826 17.739 20.4087 17.739 22C17.739 25.0902 16.9595 27.206 16.0887 28.6054C15.3542 29.7859 14.9869 30.3761 15.0004 30.5408C15.0153 30.7231 15.0539 30.7926 15.2008 30.9016C15.3335 31 15.9316 31 17.1279 31H30.3502C31.5464 31 32.1446 31 32.2773 30.9016C32.4242 30.7926 32.4628 30.7231 32.4777 30.5408C32.4912 30.3761 32.1239 29.7859 31.3894 28.6054C30.5186 27.206 29.739 25.0902 29.739 22Z" stroke="white" stroke-width="2" stroke-linecap="round" stroke-linejoin="round"/>
<circle cx="31.7393" cy="20" r="4.75" fill="#FC3333" stroke="#093033" stroke-width="1.5"/>
</svg>
