<svg width="34" height="34" viewBox="0 0 34 34" fill="none" xmlns="http://www.w3.org/2000/svg">
<circle cx="17" cy="17" r="16" fill="white" stroke="#093033" stroke-width="2"/>
<g clip-path="url(#clip0_734_2766)">
<path d="M9.93936 25.2862C9.49412 25.2862 9.11297 25.1276 8.79591 24.8106C8.47884 24.4935 8.32031 24.1124 8.32031 23.6671V13.9528C8.32031 13.5076 8.47884 13.1265 8.79591 12.8094C9.11297 12.4923 9.49412 12.3338 9.93936 12.3338H12.4894L13.987 10.7148H18.8441V12.3338H14.6953L13.2179 13.9528H9.93936V23.6671H22.8917V16.3814H24.5108V23.6671C24.5108 24.1124 24.3523 24.4935 24.0352 24.8106C23.7181 25.1276 23.337 25.2862 22.8917 25.2862H9.93936ZM22.8917 13.9528V12.3338H21.2727V10.7148H22.8917V9.0957H24.5108V10.7148H26.1298V12.3338H24.5108V13.9528H22.8917ZM16.4156 22.4528C17.4275 22.4528 18.2876 22.0987 18.9959 21.3903C19.7042 20.682 20.0584 19.8219 20.0584 18.81C20.0584 17.7981 19.7042 16.938 18.9959 16.2296C18.2876 15.5213 17.4275 15.1671 16.4156 15.1671C15.4036 15.1671 14.5435 15.5213 13.8352 16.2296C13.1269 16.938 12.7727 17.7981 12.7727 18.81C12.7727 19.8219 13.1269 20.682 13.8352 21.3903C14.5435 22.0987 15.4036 22.4528 16.4156 22.4528ZM16.4156 20.8338C15.8489 20.8338 15.3699 20.6382 14.9786 20.2469C14.5874 19.8556 14.3917 19.3767 14.3917 18.81C14.3917 18.2433 14.5874 17.7644 14.9786 17.3731C15.3699 16.9818 15.8489 16.7862 16.4156 16.7862C16.9822 16.7862 17.4612 16.9818 17.8525 17.3731C18.2437 17.7644 18.4394 18.2433 18.4394 18.81C18.4394 19.3767 18.2437 19.8556 17.8525 20.2469C17.4612 20.6382 16.9822 20.8338 16.4156 20.8338Z" fill="#093033"/>
</g>
<defs>
<clipPath id="clip0_734_2766">
<rect width="19.4286" height="19.4286" fill="white" transform="translate(8.28516 8.28613)"/>
</clipPath>
</defs>
</svg>
