<svg width="34" height="34" viewBox="0 0 34 34" fill="none" xmlns="http://www.w3.org/2000/svg">
<rect width="34" height="34" rx="17" fill="#2AB540"/>
<path d="M17 34C26.3888 34 34 26.3888 34 17C34 7.61116 26.3888 0 17 0C7.61116 0 0 7.61116 0 17C0 26.3888 7.61116 34 17 34Z" fill="#2AB540"/>
<path d="M6.09961 16.9004C6.09886 18.8294 6.60281 20.7126 7.56123 22.3725L6.00781 28.0441L11.8124 26.5221C13.4115 27.3943 15.212 27.8537 17.0446 27.8545H17.0491C23.0834 27.8545 27.9956 22.9437 27.9983 16.9087C27.9994 13.984 26.8611 11.2338 24.7943 9.16506C22.7271 7.09634 19.978 5.95621 17.0491 5.95508C11.0137 5.95508 6.10226 10.8651 6.09961 16.9004ZM9.55628 22.0866L9.33943 21.7424C8.42823 20.294 7.94732 18.6197 7.94808 16.9008C7.94997 11.8847 12.0322 7.80354 17.0521 7.80354C19.4831 7.80468 21.7676 8.75214 23.4861 10.4714C25.2042 12.1911 26.1498 14.477 26.1494 16.9076C26.1471 21.9241 22.0649 26.0056 17.0487 26.0056H17.0453C15.4122 26.0045 13.8104 25.5663 12.4134 24.7374L12.081 24.5402L8.63639 25.4435L9.55628 22.0866Z" fill="white"/>
<path d="M14.3136 12.3247C14.1085 11.8691 13.8932 11.8601 13.6978 11.8521C13.5384 11.8453 13.356 11.8457 13.1735 11.8457C12.991 11.8457 12.6945 11.9141 12.444 12.188C12.1932 12.4619 11.4863 13.1237 11.4863 14.4694C11.4863 15.8154 12.4667 17.1161 12.6034 17.2989C12.7402 17.4814 14.4961 20.3317 17.2765 21.4284C19.5878 22.3396 20.0577 22.1587 20.5594 22.113C21.0611 22.0672 22.1782 21.4515 22.406 20.8126C22.6342 20.1738 22.6342 19.6264 22.5658 19.512C22.4974 19.3979 22.315 19.3295 22.0414 19.1927C21.7679 19.056 20.4227 18.3941 20.1722 18.3027C19.9214 18.2116 19.7389 18.1659 19.5564 18.4398C19.374 18.7133 18.85 19.3295 18.6906 19.512C18.5311 19.6948 18.3713 19.7175 18.0978 19.5807C17.8243 19.4436 16.943 19.155 15.8976 18.223C15.0843 17.4976 14.5354 16.6023 14.3756 16.3284C14.2162 16.0549 14.3586 15.9068 14.4957 15.7704C14.6185 15.648 14.7692 15.4508 14.9064 15.2914C15.0427 15.1316 15.0884 15.0175 15.1795 14.8351C15.2709 14.6526 15.2252 14.4928 15.1568 14.3557C15.0884 14.2185 14.5569 12.8657 14.3136 12.3247Z" fill="white"/>
</svg>
