<svg width="39" height="24" viewBox="0 0 39 24" fill="none" xmlns="http://www.w3.org/2000/svg">
<g clip-path="url(#clip0_1839_3725)">
<path d="M12 24C18.6274 24 24 18.6274 24 12C24 5.37258 18.6274 0 12 0C5.37258 0 0 5.37258 0 12C0 18.6274 5.37258 24 12 24Z" fill="#F93232"/>
<path d="M26.4004 0C23.7052 0 21.226 0.9 19.2244 2.4H19.2004V2.4168C18.7252 2.7744 18.2884 3.1776 17.872 3.6H20.5288C20.8984 3.9756 21.2392 4.3776 21.5548 4.8H16.8364C16.546 5.1828 16.2796 5.5824 16.036 6H22.3528C22.5784 6.3888 22.7908 6.7848 22.9744 7.2H15.4252C15.2536 7.59 15.1024 7.9896 14.9728 8.4H23.4256C23.5504 8.7912 23.6488 9.1932 23.7352 9.6H14.6596C14.5792 9.9936 14.512 10.392 14.4712 10.8H23.9284C23.9752 11.1936 24.0004 11.5932 24.0004 12H14.4004C14.4004 12.4068 14.4328 12.804 14.4724 13.2H23.9308C23.8852 13.6068 23.8192 14.0064 23.7364 14.4H14.6608C14.7436 14.8092 14.8504 15.2076 14.974 15.6H23.4268C23.2972 16.0104 23.146 16.41 22.9744 16.8H15.4252C15.6064 17.2128 15.8104 17.6136 16.036 18H22.3528C22.1104 18.4176 21.8404 18.8172 21.55 19.2H16.8364C17.1556 19.6224 17.5 20.0244 17.8708 20.4H20.5288C20.1112 20.8236 19.6756 21.2256 19.2004 21.5832C21.2068 23.094 23.6944 24 26.4004 24C33.028 24 38.4004 18.6264 38.4004 12C38.4004 5.3736 33.028 0 26.4004 0Z" fill="#FED049"/>
</g>
<defs>
<clipPath id="clip0_1839_3725">
<rect width="38.4" height="24" fill="white"/>
</clipPath>
</defs>
</svg>
