<svg width="67" height="66" viewBox="0 0 67 66" fill="none" xmlns="http://www.w3.org/2000/svg">
<rect x="0.5" width="66" height="66" rx="33" fill="#093033"/>
<path d="M25.737 44.3336C23.5884 44.3336 21.7526 43.5898 20.2297 42.1023C18.7068 40.6148 17.9453 38.7968 17.9453 36.6482C17.9453 34.8065 18.5002 33.1655 19.6099 31.7253C20.7196 30.285 22.1717 29.3642 23.9661 28.9628C24.3675 27.2628 25.371 25.6454 26.9766 24.1107C28.5821 22.576 30.2939 21.8086 32.112 21.8086C32.8911 21.8086 33.5582 22.086 34.113 22.6409C34.6679 23.1957 34.9453 23.8628 34.9453 24.6419V33.2128L37.212 31.0169L39.1953 33.0003L33.5286 38.6669L27.862 33.0003L29.8453 31.0169L32.112 33.2128V24.6419C30.3175 24.9725 28.9245 25.8402 27.9328 27.2451C26.9411 28.6499 26.4453 30.0961 26.4453 31.5836H25.737C24.3675 31.5836 23.1988 32.0676 22.2307 33.0357C21.2627 34.0037 20.7786 35.1725 20.7786 36.5419C20.7786 37.9114 21.2627 39.0801 22.2307 40.0482C23.1988 41.0162 24.3675 41.5003 25.737 41.5003H42.737C43.7286 41.5003 44.5668 41.1579 45.2516 40.4732C45.9363 39.7885 46.2786 38.9503 46.2786 37.9586C46.2786 36.9669 45.9363 36.1287 45.2516 35.444C44.5668 34.7593 43.7286 34.4169 42.737 34.4169H40.612V31.5836C40.612 30.4503 40.3523 29.3937 39.8328 28.4138C39.3134 27.4339 38.6286 26.6016 37.7786 25.9169V22.6232C39.5259 23.4496 40.9071 24.6714 41.9224 26.2888C42.9377 27.9062 43.4453 29.6711 43.4453 31.5836C45.0745 31.7725 46.4262 32.4749 47.5005 33.6909C48.5748 34.9069 49.112 36.3294 49.112 37.9586C49.112 39.7294 48.4922 41.2346 47.2526 42.4742C46.013 43.7138 44.5078 44.3336 42.737 44.3336H25.737Z" fill="#8BDB00"/>
</svg>
