<svg width="28" height="28" viewBox="0 0 28 28" fill="none" xmlns="http://www.w3.org/2000/svg">
<path d="M18.739 11C18.739 9.4087 18.1069 7.88258 16.9817 6.75736C15.8565 5.63214 14.3303 5 12.739 5C11.1477 5 9.62161 5.63214 8.49639 6.75736C7.37117 7.88258 6.73903 9.4087 6.73903 11C6.73903 14.0902 5.9595 16.206 5.0887 17.6054C4.35416 18.7859 3.98689 19.3761 4.00036 19.5408C4.01527 19.7231 4.05389 19.7926 4.20081 19.9016C4.33349 20 4.93162 20 6.12789 20H19.3502C20.5464 20 21.1446 20 21.2773 19.9016C21.4242 19.7926 21.4628 19.7231 21.4777 19.5408C21.4912 19.3761 21.1239 18.7859 20.3894 17.6054C19.5186 16.206 18.739 14.0902 18.739 11Z" fill="white"/>
<path d="M14.739 24H10.739M18.739 11C18.739 9.4087 18.1069 7.88258 16.9817 6.75736C15.8565 5.63214 14.3303 5 12.739 5C11.1477 5 9.62161 5.63214 8.49639 6.75736C7.37117 7.88258 6.73903 9.4087 6.73903 11C6.73903 14.0902 5.9595 16.206 5.0887 17.6054C4.35416 18.7859 3.98689 19.3761 4.00036 19.5408C4.01527 19.7231 4.05389 19.7926 4.20081 19.9016C4.33349 20 4.93162 20 6.12789 20H19.3502C20.5464 20 21.1446 20 21.2773 19.9016C21.4242 19.7926 21.4628 19.7231 21.4777 19.5408C21.4912 19.3761 21.1239 18.7859 20.3894 17.6054C19.5186 16.206 18.739 14.0902 18.739 11Z" stroke="white" stroke-width="2" stroke-linecap="round" stroke-linejoin="round"/>
<circle cx="20.7393" cy="9" r="4.75" fill="#FC3333" stroke="#093033" stroke-width="1.5"/>
</svg>
