<svg width="50" height="50" viewBox="0 0 50 50" fill="none" xmlns="http://www.w3.org/2000/svg">
<path d="M27 14.2965V18.8401C27 19.4561 27 19.7642 27.1199 19.9995C27.2254 20.2064 27.3936 20.3747 27.6006 20.4802C27.8359 20.6001 28.1439 20.6001 28.76 20.6001H33.3036M29.2 26.1H20.4M29.2 30.5H20.4M22.6 21.7H20.4M27 14H21.28C19.4318 14 18.5077 14 17.8018 14.3597C17.1809 14.6761 16.6761 15.1809 16.3597 15.8018C16 16.5077 16 17.4318 16 19.28V30.72C16 32.5682 16 33.4923 16.3597 34.1982C16.6761 34.8191 17.1809 35.3239 17.8018 35.6403C18.5077 36 19.4318 36 21.28 36H28.32C30.1682 36 31.0923 36 31.7982 35.6403C32.4191 35.3239 32.9239 34.8191 33.2403 34.1982C33.6 33.4923 33.6 32.5682 33.6 30.72V20.6L27 14Z" stroke="white" stroke-width="2" stroke-linecap="round" stroke-linejoin="round"/>
</svg>
