<svg width="50" height="50" viewBox="0 0 50 50" fill="none" xmlns="http://www.w3.org/2000/svg">
<circle cx="25" cy="25" r="25" fill="url(#paint0_linear_713_5247)"/>
<path d="M16 23.5648C16 22.9905 16 22.7033 16.074 22.4388C16.1396 22.2045 16.2474 21.9842 16.392 21.7886C16.5553 21.5678 16.782 21.3915 17.2354 21.0389L24.0177 15.7638C24.369 15.4905 24.5447 15.3539 24.7387 15.3014C24.9098 15.255 25.0902 15.255 25.2613 15.3014C25.4553 15.3539 25.631 15.4905 25.9823 15.7638L32.7646 21.0389C33.218 21.3915 33.4447 21.5678 33.608 21.7886C33.7526 21.9842 33.8604 22.2045 33.926 22.4388C34 22.7033 34 22.9905 34 23.5648V30.7997C34 31.9198 34 32.4799 33.782 32.9077C33.5903 33.284 33.2843 33.59 32.908 33.7818C32.4802 33.9997 31.9201 33.9997 30.8 33.9997H19.2C18.0799 33.9997 17.5198 33.9997 17.092 33.7818C16.7157 33.59 16.4097 33.284 16.218 32.9077C16 32.4799 16 31.9198 16 30.7997V23.5648Z" fill="white"/>
<defs>
<linearGradient id="paint0_linear_713_5247" x1="46.5" y1="14.5" x2="-11" y2="51.5" gradientUnits="userSpaceOnUse">
<stop stop-color="#87603F"/>
<stop offset="1" stop-color="#FFF3CF"/>
</linearGradient>
</defs>
</svg>
