<svg width="51" height="50" viewBox="0 0 51 50" fill="none" xmlns="http://www.w3.org/2000/svg">
<circle cx="25.0625" cy="25" r="25" fill="url(#paint0_linear_4035_859)"/>
<g clip-path="url(#clip0_4035_859)">
<path d="M30.4724 16.9288C30.3798 16.6446 30.134 16.4373 29.8386 16.3944L27.0268 15.9857L25.7689 13.4375C25.6371 13.1697 25.3642 13 25.0651 13C24.7661 13 24.4932 13.1697 24.3613 13.4375L23.1034 15.9858L20.2912 16.3945C19.9957 16.4374 19.7499 16.6446 19.6574 16.9288C19.5649 17.213 19.6421 17.5251 19.8562 17.7336L21.8916 19.7171L21.4107 22.5176C21.36 22.8122 21.4812 23.11 21.723 23.2856C21.9653 23.4619 22.2858 23.4836 22.55 23.3454L25.0653 22.0231L27.5801 23.3454C27.8504 23.4872 28.1697 23.458 28.4071 23.2856C28.6489 23.11 28.77 22.8123 28.7195 22.5179L28.239 19.7171L30.2738 17.7336C30.4877 17.5251 30.5644 17.213 30.4724 16.9288Z" fill="white"/>
<path d="M28.2029 24.9619H21.9221C21.4885 24.9619 21.137 25.3134 21.137 25.747V37.0001H28.988V25.747C28.988 25.3134 28.6364 24.9619 28.2029 24.9619Z" fill="white"/>
<path d="M14.071 28.1025C13.6374 28.1025 13.2859 28.4541 13.2859 28.8876V36.3796C13.2859 36.7225 13.5638 37.0004 13.9066 37.0004H19.5667V28.1025H14.071Z" fill="white"/>
<path d="M36.0538 31.2422H30.5581V36.9996H36.2182C36.5611 36.9996 36.8389 36.7217 36.8389 36.3789V32.0273C36.8389 31.5937 36.4874 31.2422 36.0538 31.2422Z" fill="white"/>
</g>
<defs>
<linearGradient id="paint0_linear_4035_859" x1="46.5625" y1="14.5" x2="-10.9375" y2="51.5" gradientUnits="userSpaceOnUse">
<stop stop-color="#87603F"/>
<stop offset="1" stop-color="#FFF3CF"/>
</linearGradient>
<clipPath id="clip0_4035_859">
<rect width="24" height="24" fill="white" transform="translate(13.0625 13)"/>
</clipPath>
</defs>
</svg>
