<svg width="50" height="50" viewBox="0 0 50 50" fill="none" xmlns="http://www.w3.org/2000/svg">
<g clip-path="url(#clip0_730_1804)">
<path d="M35.9912 31.2419H29.4486V25.746C29.4486 25.3125 29.0971 24.9609 28.6635 24.9609H21.3356C20.902 24.9609 20.5505 25.3125 20.5505 25.746V28.1014H14.0078C13.5742 28.1014 13.2227 28.4529 13.2227 28.8865V36.2144C13.2227 36.648 13.5742 36.9995 14.0078 36.9995C14.4085 36.9995 35.5417 36.9995 35.9912 36.9995C36.4248 36.9995 36.7764 36.648 36.7764 36.2144V32.0271C36.7764 31.5935 36.4248 31.2419 35.9912 31.2419ZM20.5505 35.4293H14.7929V29.6717H20.5505V35.4293ZM27.8783 35.4293H22.1208C22.1208 35.2056 22.1208 26.7769 22.1208 26.5312H27.8783C27.8783 26.9663 27.8783 35.006 27.8783 35.4293ZM35.2061 35.4293H29.4486V32.8122H35.2061V35.4293Z" fill="white"/>
<path d="M29.515 16.3938L26.7028 15.9851L25.4452 13.4369C25.1577 12.8544 24.3246 12.8543 24.0371 13.4369L22.7795 15.9852L19.9674 16.3939C19.3248 16.4871 19.0669 17.2795 19.5323 17.733L21.5671 19.7165L21.0867 22.5173C20.9771 23.1572 21.6506 23.6474 22.2259 23.3449L24.7412 22.0226L27.2564 23.3449C27.8295 23.646 28.5056 23.1589 28.3956 22.5173L27.9153 19.7165L29.9501 17.733C30.4151 17.2797 30.158 16.4871 29.515 16.3938ZM26.5236 18.8801C26.3386 19.0605 26.2541 19.3204 26.2978 19.575L26.5791 21.2146L25.1066 20.4405C24.8778 20.3202 24.6045 20.3202 24.3759 20.4405L22.9033 21.2147L23.1846 19.575C23.2283 19.3204 23.1438 19.0605 22.9588 18.8801L21.7676 17.7189L23.4138 17.4797C23.6696 17.4425 23.8906 17.2819 24.005 17.0502L24.7412 15.5584L25.4774 17.0502C25.5918 17.2819 25.8128 17.4425 26.0685 17.4797L27.7148 17.7189L26.5236 18.8801Z" fill="white"/>
</g>
<defs>
<clipPath id="clip0_730_1804">
<rect width="24" height="24" fill="white" transform="translate(13 13)"/>
</clipPath>
</defs>
</svg>
